<?xml version="1.0" encoding="utf-8"?>
<!-- Generator: Adobe Illustrator 15.0.0, SVG Export Plug-In . SVG Version: 6.00 Build 0)  -->
<svg version="1.2" baseProfile="tiny" id="Ebene_1" xmlns="http://www.w3.org/2000/svg" xmlns:xlink="http://www.w3.org/1999/xlink"
	 x="0px" y="0px" width="1000px" height="1200px" viewBox="0 0 1000 1200" xml:space="preserve">
<g>
	<g>
		<path fill-rule="evenodd" d="M543.938,2.925c-6.62,2.262-23.609,0.967-26-1C525.379-0.017,537.61,0.558,543.938,2.925z"/>
		<path fill-rule="evenodd" d="M491.938,4.925C488.713,7.985,484.456,3.728,491.938,4.925L491.938,4.925z"/>
		<path fill-rule="evenodd" d="M579.938,10.925c-5.148,1.771-11.073,1.129-13-3c-9.492-1.825-12.58,2.754-20,3
			C549.903,1.433,575.759,3.746,579.938,10.925z"/>
		<path fill-rule="evenodd" d="M555.938,11.925c3.469,0.198,7.687-0.354,8,3C561.958,15.024,555.724,17.834,555.938,11.925z"/>
		<path fill-rule="evenodd" d="M591.938,12.925c-1.196,5.278-4.453,1.073-10,2C583.683,10.478,587.321,13.443,591.938,12.925z"/>
		<path fill-rule="evenodd" d="M602.938,17.925c-1.387,2.28-6.961,0.373-10,1C592.69,15.083,601.527,17.015,602.938,17.925z"/>
		<path fill-rule="evenodd" d="M612.938,20.925c-0.577,3.306-9.04,4.446-9,0C607.27,19.188,608.373,21.429,612.938,20.925z"/>
		<path fill-rule="evenodd" d="M621.938,24.925c0.611,3.944-5.49,1.176-8,2C613.327,22.981,619.428,25.749,621.938,24.925z"/>
		<path fill-rule="evenodd" d="M624.938,28.925c1.666,0,3.333,0,5,0C631.468,31.998,623.408,31.998,624.938,28.925z"/>
		<path fill-rule="evenodd" d="M446.938,34.925c-3.039-0.627-8.614,1.28-10-1C436.768,30.464,448.316,30.706,446.938,34.925z"/>
		<path fill-rule="evenodd" d="M539.938,32.925c-1.045,5.712,7.435,1.898,11.001,3c2.135,4.797,13.135,5.978,12.999,16
			c-2.036,0.297-2.664,2.003-4,3c-3.73,1.647-6.631-5.652-8,0c-6.597-4.736-18.349-4.318-23-11c-6.794-0.873-16.066,0.733-20-3
			c17.916-4.742,25.14,6.655,39,1c-7.361-1.305-9.037-8.296-19-7C529.06,30.713,536.611,33.932,539.938,32.925z"/>
		<path fill-rule="evenodd" d="M634.938,32.925c1.711-0.21,2.591,1.705,3,0C642.327,34.348,633.236,37.045,634.938,32.925z"/>
		<path fill-rule="evenodd" d="M579.938,37.925c-0.319-1.765,5.603-1.785,4,1C581.848,39.348,581.289,38.24,579.938,37.925z"/>
		<path fill-rule="evenodd" d="M606.938,36.925c0.611,3.944-5.49,1.176-8,2C598.327,34.981,604.428,37.749,606.938,36.925z"/>
		<path fill-rule="evenodd" d="M584.938,39.925c2,0,4,0,6,0c0.131,3.536,3.164,4.168,6,5c-0.777,0.89-1.075,2.258-1,4
			C591.068,47.127,586.901,44.627,584.938,39.925z"/>
		<path fill-rule="evenodd" d="M606.938,39.925c10.876-0.535,17.841,8.148,17,16C618.975,49.888,611.559,46.304,606.938,39.925z"/>
		<path fill-rule="evenodd" d="M625.938,40.925c1,0,2,0,3.001,0c0,1,0,2,0,3C626.756,44.106,625.756,43.106,625.938,40.925z"/>
		<path fill-rule="evenodd" d="M596.938,48.925c2.182-0.182,3.182,0.819,3,3C597.757,52.106,596.756,51.106,596.938,48.925z"/>
		<path fill-rule="evenodd" d="M404.938,50.925c0.125-2.209,4.242-0.425,6-1C410.813,52.133,406.695,50.35,404.938,50.925z"/>
		<path fill-rule="evenodd" d="M476.938,56.925c3.156-0.49,3.531,1.802,7,1C483.817,61.016,477.035,59.76,476.938,56.925z"/>
		<path fill-rule="evenodd" d="M626.938,57.925C628.096,53.974,628.096,61.876,626.938,57.925L626.938,57.925z"/>
		<path fill-rule="evenodd" d="M658.938,56.925c2.917-1.47,2.917,4.47,0,3C658.938,58.925,658.938,57.925,658.938,56.925z"/>
		<path fill-rule="evenodd" d="M657.938,63.925c-2.319,0.319-3.839-0.161-5-1C653.457,59.685,658.946,58.507,657.938,63.925z"/>
		<path fill-rule="evenodd" d="M658.938,64.925c1.701-0.367,1.887,0.78,2,2c-0.852-0.184-0.943,0.39-1,1
			C658.766,67.763,659.094,66.102,658.938,64.925z"/>
		<path fill-rule="evenodd" d="M236.938,187.925c0.028-0.973,1.224-0.776,2-1C238.91,187.897,237.713,187.701,236.938,187.925z"/>
		<path fill-rule="evenodd" d="M246.938,195.925c0.161-1.172,1.823-0.843,3-1C249.776,196.097,248.115,195.768,246.938,195.925z"/>
		<path fill-rule="evenodd" d="M243.938,198.925c-0.08,3.044-6.538,2.344-8,1C237.24,197.167,241.343,197.926,243.938,198.925z"/>
		<path fill-rule="evenodd" d="M235.938,200.925c0,1.333,0,2.667,0,4c-12.567,4.1-14.985,18.349-26,24
			C214.237,215.224,223.388,206.375,235.938,200.925z"/>
		<path fill-rule="evenodd" d="M221.938,237.925c2.917-1.47,2.917,4.47,0,3C221.938,239.925,221.938,238.925,221.938,237.925z"/>
		<path fill-rule="evenodd" d="M217.938,242.925c0.667,0,1.333,0,2,0c0,0.667,0,1.333,0,2c-0.667,0-1.333,0-2,0
			C217.938,244.258,217.938,243.591,217.938,242.925z"/>
		<path fill-rule="evenodd" d="M221.938,250.925c1.701-0.368,1.887,0.78,2,2c-0.851-0.184-0.943,0.39-1,1
			C221.766,253.763,222.094,252.102,221.938,250.925z"/>
		<path fill-rule="evenodd" d="M217.938,253.925c2.09-0.423,2.647,0.686,4,1c-5.255,11.925-12.047,16.821-18,27
			c-4.306-1.306-3.932,2.068-5,4c-3.423-7.55,10.245-17.068,11-24c5.009,1.342,1.54-5.793,7-4
			C216.514,255.835,217.623,255.277,217.938,253.925z"/>
		<path fill-rule="evenodd" d="M808.938,258.925c3.117,0.132,1.023,2.267,2,6C807.323,265.872,809.543,260.986,808.938,258.925z"/>
		<path fill-rule="evenodd" d="M216.938,279.925c-0.396-1.941,4.555-1.461,3,1c-0.667,0-1.333,0-2,0
			C218.122,280.074,217.548,279.981,216.938,279.925z"/>
		<path fill-rule="evenodd" d="M334.938,356.925c2.039,0.294,1.961,2.706,4,3c-3.528,5.581-15.433-2.266-14,7
			c-2.239-2.664-5.011,1.414-7-1C320.877,360.198,330.875,361.529,334.938,356.925z"/>
		<path fill-rule="evenodd" d="M337.938,357.925c-0.281-1.59,5.401-1.402,3,1C341.322,358.541,337.925,357.855,337.938,357.925z"/>
		<path fill-rule="evenodd" d="M588.938,363.925c-0.437,1.23-1.28,2.054-3,2C585.47,363.791,587.366,364.02,588.938,363.925z"/>
		<path fill-rule="evenodd" d="M625.938,364.925c-4.018,2.315-12.319,0.347-18,1C610.192,362.26,622.103,363.769,625.938,364.925z"
			/>
		<path fill-rule="evenodd" d="M658.938,363.925c0.61,3.944-5.49,1.177-8,2C651.959,363.613,655.535,363.856,658.938,363.925z"/>
		<path fill-rule="evenodd" d="M659.938,364.925C661.097,360.974,661.096,368.876,659.938,364.925L659.938,364.925z"/>
		<path fill-rule="evenodd" d="M584.938,366.925c0.464,3.131-0.869,4.464-4,4C580.474,367.794,581.807,366.461,584.938,366.925z"/>
		<path fill-rule="evenodd" d="M626.938,366.925C631.271,367.341,625.884,372.729,626.938,366.925L626.938,366.925z"/>
		<path fill-rule="evenodd" d="M310.938,367.925c2.917-1.47,2.917,4.47,0,3C310.938,369.925,310.938,368.925,310.938,367.925z"/>
		<path fill-rule="evenodd" d="M601.938,367.925c1.666,0,3.334,0,5,0C608.468,370.998,600.407,370.998,601.938,367.925z"/>
		<path fill-rule="evenodd" d="M647.938,367.925c-0.111,2.555-3.348,1.985-6,2C640.99,366.311,645.876,368.53,647.938,367.925z"/>
		<path fill-rule="evenodd" d="M669.938,367.925c2.881,0.119,6.547-0.546,8,1C677.834,371.946,670.223,370.73,669.938,367.925z"/>
		<path fill-rule="evenodd" d="M677.938,370.925c4.667,1.524,8.122-1.956,8,4C682.671,374.191,677.338,375.525,677.938,370.925z"/>
		<path fill-rule="evenodd" d="M577.938,371.925c1,0,2,0,3,0c0.729,2.729-1.987,2.013-2,4
			C577.58,375.615,578.108,373.421,577.938,371.925z"/>
		<path fill-rule="evenodd" d="M693.938,371.925c1,0,2,0,3,0c0,1,0,2,0,3C694.756,375.106,693.756,374.106,693.938,371.925z"/>
		<path fill-rule="evenodd" d="M693.938,377.925c-1.333,0-2.666,0-4,0C689.149,374.075,694.726,374.075,693.938,377.925z"/>
		<path fill-rule="evenodd" d="M573.938,375.925c0.667,0,1.334,0,2,0c0,0.667,0,1.333,0,2c-0.666,0-1.333,0-2,0
			C573.938,377.258,573.938,376.591,573.938,375.925z"/>
		<path fill-rule="evenodd" d="M697.938,375.925c1,0,2,0,3,0c0,1,0,2,0,3C698.756,379.106,697.756,378.106,697.938,375.925z"/>
		<path fill-rule="evenodd" d="M694.938,379.925c0.667,0,1.333,0,2,0c0,0.667,0,1.333,0,2c-0.667,0-1.333,0-2,0
			C694.938,381.258,694.938,380.592,694.938,379.925z"/>
		<path fill-rule="evenodd" d="M704.938,380.925c0,0.667,0,1.333,0,2C700.063,383.926,703.093,377.603,704.938,380.925z"/>
		<path fill-rule="evenodd" d="M706.938,383.925c0.667,0,1.334,0,2,0c0,0.667,0,1.333,0,2c-0.666,0-1.333,0-2,0
			C706.938,385.258,706.938,384.592,706.938,383.925z"/>
		<path fill-rule="evenodd" d="M266.938,395.925c0.667,0,1.333,0,2,0c0,0.667,0,1.333,0,2c-0.667,0-1.333,0-2,0
			C266.938,397.258,266.938,396.592,266.938,395.925z"/>
		<path fill-rule="evenodd" d="M703.938,397.925C705.096,393.974,705.096,401.876,703.938,397.925L703.938,397.925z"/>
		<path fill-rule="evenodd" d="M714.938,403.925c3.826,2.507,7.995,4.672,15,4c-1.199,5.199,5.583,2.417,7,5
			c-0.483,2.85-3.796,2.87-6,4c0,1.667,0,3.333,0,5c3.149,0.483,2.265-3.069,6-2c-0.813,6.954,4.599,9.752,9,14
			c-4.533,3.921-0.26,4.671-1,8c-14.604-3.396-21.213-14.787-34-20C711.33,414.984,714.543,410.863,714.938,403.925z
			 M721.938,413.925c1.776,1.658,7.327,1.451,7-2C725.2,411.292,723.211,410.35,721.938,413.925z M732.938,429.925
			c-0.012-1.009-1.752-1.258-2,0C732.06,429.823,732.495,431.379,732.938,429.925z M735.938,433.925
			C737.395,437.239,738.427,430.024,735.938,433.925L735.938,433.925z"/>
		<path fill-rule="evenodd" d="M720.938,456.925c-5.122,5.002,2.613,5.843,1,13c-4.708,2.449-9.365-0.366-14,1
			c-1.485,1.849-1.916,4.751-2,8c-5.083,1.917-8.787,5.213-8,13c-3.808-0.144-6.242-0.106-7-1c-0.326-5.46,3.36-2.449,2-10
			c-2.709,7.065-0.82,0.376-3-3c1.983-2.017,4.823-3.177,5-7c2.333,0,4.667,0,7,0c-5.483-10.153-15.458,2.345-24-1
			c7.767-2.735,10.669-12.843,3-18c-3.977,2.356-8.173,4.494-7,12c-2.232,2.173-4.635,4.196-8,7c-0.493,0.411-0.669,3.83-1,4
			c-7.887,4.055-19.446-0.499-30,1c-2.539-5.141-13.102-7.547-8-17c3.624-0.958,1.017,4.316,3,5c3.023-0.31,7.777,1.11,8-2
			c-0.578-3.723-10.526-7.728-13-3c-4.81-7.271-16.784-2.765-21,2c-0.022,2.356,1.723,2.944,1,6c-3.358,1.687-6.024-0.608-8-3
			c-10.222-1.555-12.692,4.641-23,3c6.343-6.324,17.049-8.285,23-15c20.077-2.318,46.257-26.162,70-12
			c10.178-2.498,15.831,4.817,21,4c1.759,0.241,2.279,1.721,2,4C700.893,450.303,711.046,453.483,720.938,456.925z M657.938,459.925
			c-1.651,5.247,5.901,4.599,8,3c0.279-2.28-0.241-3.759-2-4C663.813,461.133,659.695,459.35,657.938,459.925z"/>
		<path fill-rule="evenodd" d="M889.938,460.925c1.628,5.015,1.282,13.641,1,17c-1.068,12.719-0.397-6.513-2-12
			C888.528,463.516,890.764,463.751,889.938,460.925z"/>
		<path fill-rule="evenodd" d="M615.938,464.925c-2.534,2.443,2.108,2.131,1,6c-3.021-1.312-4.707-3.959-7-6
			C612.028,462.745,612.791,465.424,615.938,464.925z"/>
		<path fill-rule="evenodd" d="M342.938,465.925c0.028-0.973,1.224-0.776,2-1C344.91,465.897,343.713,465.701,342.938,465.925z"/>
		<path fill-rule="evenodd" d="M771.938,472.925c-8.747,7.75-28.624,0.869-41,2c2.464-13.724,17.621-3.686,28-3
			C764.677,472.304,768.847,468.904,771.938,472.925z"/>
		<path fill-rule="evenodd" d="M771.938,469.925c0.027-0.973,1.225-0.776,2-1C773.91,469.897,772.714,469.701,771.938,469.925z"/>
		<path fill-rule="evenodd" d="M419.938,472.925c0.022,2.356-1.723,2.944-1,6c-9.006,2.474-16.101,0.251-21-4
			c-14.864,7.8-26.426,3.537-41,0c1.937-5.964,8.498-3.003,13-3C385.392,471.936,405.874,471.463,419.938,472.925z"/>
		<path fill-rule="evenodd" d="M476.938,475.925c1.615-0.282,1.722,0.945,3,1c-1.045,2.288-0.634,6.032-2,8
			C475.668,483.861,477.557,478.639,476.938,475.925z"/>
		<path fill-rule="evenodd" d="M674.938,476.925c0.666,0,1.334,0,2,0c0,0.667,0,1.333,0,2c-0.666,0-1.334,0-2,0
			C674.938,478.258,674.938,477.591,674.938,476.925z"/>
		<path fill-rule="evenodd" d="M370.938,488.925c-9.618,6.048-29.679,1.654-44,3c-0.529-0.804-1.043-1.623-1-3
			C339.051,486.885,357.66,487.814,370.938,488.925z"/>
		<path fill-rule="evenodd" d="M680.938,490.925c-2.667,0-5.334,0-8,0C672.21,486.1,681.046,487.631,680.938,490.925z"/>
		<path fill-rule="evenodd" d="M847.938,491.925c2.334,0,4.667,0,7,0c-0.296,7.295,6.453,7.547,5,16c-5.391-0.535-5.593,9.571-15,8
			c-5.141,8.328,2.948,10.603,6,16c-0.973-0.027-0.775-1.224-1-2c-2.884,2.951,0.542,6.352-6,6c-1.257,2.929,0.656,5.977,0,11
			c-3.151,2.515-11.509-0.176-13,4.001c-5.019-0.982-7.688-4.314-10-8.001c3.086-10.882,1.132-31.119,4-39c6,0,12,0,18,0
			C845.642,499.271,847.934,499.803,847.938,491.925z"/>
		<path fill-rule="evenodd" d="M693.938,495.925c2.667,0,5.334,0,8,0c-3.078,9.467-21.855,16.231-32,9
			C679.347,503.529,691.387,501.032,693.938,495.925z"/>
		<path fill-rule="evenodd" d="M872.938,508.925c0.667,0,1.333,0,2,0c0,0.667,0,1.333,0,2c-0.667,0-1.333,0-2,0
			C872.938,510.258,872.938,509.592,872.938,508.925z"/>
		<path fill-rule="evenodd" d="M868.938,512.925c1,0,2,0,3,0c1.045,15.274-5.836,24.263-5,43c-0.81-0.19-0.997-1.003-2-1
			c0.44,12.44-4.036,19.964-6,30c-4.951-2.57-4.675,7.716-11,7c0.479,3.478,0.187,6.187-4,5c-3.045,9.111-6.283,20.06-14,27
			c-7.368-7.441-15.88,3.505-22,0c0.256-5.745-0.749-12.749,1-17c10.599,5.98,18.816-6.069,30-6c3.43-7.777,8.871-14.583,17-20
			c-0.359-7.36,0.259-13.741,1-20c4.063,5.526,2.441-11.156,4-18c0.029-0.127,1.768,1.354,2,1c1.707-2.597-0.854-14.268,2-19
			c0.286-0.474,2.816-0.345,3-1C869.149,519.588,867.364,515.173,868.938,512.925z"/>
		<path fill-rule="evenodd" d="M213.938,557.925c6.65,3.016,8.069,11.265,14,15c2.866,18.674,23.102,30.886,25,52
			c0.209,2.331-1.853,3.584-2,6c-0.531,8.725,4.342,18.622,6,29c3.299,20.656,4.17,41.184,3,65c-1.837-1.162-0.693-5.308-5-4
			c-3.692-11.642-7.301-23.366-13-33C237.804,639.392,224.571,599.959,213.938,557.925z"/>
		<path fill-rule="evenodd" d="M439.938,599.925c-10.411,4.922-17.513,13.154-19,27
			C416.401,615.897,428.956,580.166,439.938,599.925z"/>
		<path fill-rule="evenodd" d="M569.938,592.925c10.536,3.852,15.99,17.936,14,31c-6.217-7.782-11.345-16.654-18-24
			C565.662,595.982,570.213,596.866,569.938,592.925z"/>
		<path fill-rule="evenodd" d="M844.938,611.925c2.186,0.146,2.146,2.52,2,5C843.577,617.951,845.381,613.815,844.938,611.925z"/>
		<path fill-rule="evenodd" d="M840.938,621.925c3.155-1.287,3.155,8.286,0,7.001C840.938,626.591,840.938,624.258,840.938,621.925z
			"/>
		<path fill-rule="evenodd" d="M416.938,628.926c3.854,15.429,14.877,31.116,34,24.999c1.753-2.247,0.479-7.521,2-10
			c5.375,13.473,9.148,26.155,24,29c9.054,1.734,18.519-2.901,29-2c8.689,0.748,15.423,5.573,24,3c10.716-5.95,22.962-10.372,24-26
			c2.952,1.38,2.305,6.362,3,10c17.217,10.85,28.793-7.173,35-17c1.121,21.645-1.886,43.725-13,56
			c-12.732,2.276-23.316,12.877-37,16c-4.028,0.919-8.144-0.181-12,1c-9.994,3.059-14.614,12.438-19,20
			c-3.056-0.723-3.645,1.022-6,1c-0.415,0.588,1.777,1.256,2,1c-8.776,10.104-20.524-8.532-27-10c-2.916-9.084-14.251-9.749-17-19
			c-6.255-0.746-8.224-5.776-15-6c-4.505-7.494-13.079-10.922-21-15C417.594,673.044,411.943,650.032,416.938,628.926z"/>
		<path fill-rule="evenodd" d="M836.938,633.925c3.585,0.614,1.663,6.73,1,9C835.668,641.86,837.557,636.64,836.938,633.925z"/>
		<path fill-rule="evenodd" d="M832.938,644.925c3.291,0.374,2.664,8.574-1,8C831.168,649.156,833.158,648.145,832.938,644.925z"/>
		<path fill-rule="evenodd" d="M358.938,762.925c1.333,0,2.667,0,4,0c0,0.667,0,1.334,0,2c-1.333,0-2.667,0-4,0
			C358.938,764.259,358.938,763.592,358.938,762.925z"/>
		<path fill-rule="evenodd" d="M362.938,765.925c8.435,0.607,15.159,4.673,18,8c7.554-0.554,13.353,0.646,20,1
			c-3.617,4.353,14.243,2.558,20,4c-2.731,2.762,1.464,0.938,2,3c4.242,0.204,13.422,0.14,12-2c2.735-1.598,6.608-2.059,11-2
			c1.97-4.488,22.696-6.643,29-3c5.389,3.114,7.486,10.341,14,12c18.912,2.681,23.098-13.918,42-8c0,1,0,2,0,3
			c15.2,7.782,36.208,11.346,55,1c3,0,6,0,9,0c4.26-5.15,1.392-13.104,12-13c3.581,3.344-4.581,4.656-1,8c4.92,1.587,1.5-5.167,6-4
			c-0.688,5.688,7.025,2.975,10,5c-0.115,2.551-0.188,5.145-3,5c0.479,1.935,6.649,3.244,8,1c2.701,0.3,1.793,4.207,4,5
			c4.306-2.558,13.864-4.533,19-3c0.254,4.92-7.865,1.468-9,5c-0.668,4.335,4.642,2.692,8,3c-3.259,2.741-4.561,7.44-11,7
			c1.085,2.562-3.038,4.767,0,6c-12.158,3.483-21.132-4.861-36-2c-9.62,9.713-19.321,19.346-33,25c-0.253,5.932,6.27,0.545,8,3
			c-2.595,10.737-13.572,13.095-27,13c-3.587,0.079-0.796,6.538-3,8c-16.423-0.724-36.281,10.14-48,0c-6.203-2.293-9.877,3.652-16,4
			c-6.134,0.349-11.153-3.686-17-3c-6.837,0.803-8.2,0.709-16-1c-12.848-2.814-28.703,4.13-38-3c18.231-1.121,16.041-8.998,3-15
			c-0.647-4.896-0.174-4.697,0-10c-9.78-8.556-25.59-16.406-30-27c10.979-3.77,24.539,11.967,34,18c4.027,2.568,12.534,7.992,17,9
			c8.337,1.882,23.789-0.798,33,2c17.762,5.396,39.703-2.347,60,1c3.044,0.044,3.889-2.111,6-3c6.282-0.051,12.771,0.104,15-4
			c14.668-1.665,25.517-7.15,35-14c-13.374-3.619-30.086-3.775-46-6c-13.949-1.949-28.979,1.418-42,3c-4.209,2.697-3.304,6.565-8,10
			c-1.443-3.224-0.945-8.389-1-13c-5.402-1.264-11.55-1.783-15-5c-26.604,0.603-51.991-0.009-74-4c-5.468-7.509-28.109-6.506-34,0
			c-6.554-0.221-12.945-0.277-16,3c-2.494-2.506-7.119-2.881-11-4c1.151-1.183,1.131-3.535,1-6c4.243-2.092,8.769-3.897,13-6
			c-1.17-5.83-8.581-5.419-11-10c8-0.773,10.016-1.337,17,0c-7.218-1.382,3.67,4.736,8,2
			C366.417,769.112,361.309,770.888,362.938,765.925z"/>
		<path fill-rule="evenodd" d="M622.938,775.925C624.096,771.974,624.096,779.876,622.938,775.925L622.938,775.925z"/>
		<path fill-rule="evenodd" d="M960.007,979.265c1.661,55.01,1.601,114.65-0.069,169.66c-70.001,0-139.999,0-210,0
			c-2.495-79.751,20.843-176.879-13-236c-12.591,22.417-30.063,38.95-45.438,55.575c-2.324,2.807-3.948,4.55-7.75,7.875
			c-4.125,3.5-6.5,7.125-10.625,10.375c-4.126,3.77-4.5,5.25-8.25,8.125c-3.688,2.95-22.369,15.585-28.75,21.875
			c-1.334,1.667-3.634,2.729-5.188,4.175c-30.744,28.602-72.314,55.009-104,86c23.934,10.4,46.249,22.417,63,40
			c-51.779,3.962-115.613,2.015-170,1c11.866-16.468,29.837-26.83,47-38c4.2-0.801,9.534-0.466,10-5
			c-5.89-8.776-14.907-14.427-24-20c-0.777-0.89-2.188-1.925-3.938-3.425c-26.548-17.119-44.791-40.181-71.063-57.575
			c-1.136-1.702-0.771-0.841-1.938-2.424c-2.794-1.337-4.764-3.835-7.833-6.667c-1.622-1.496-3.502-4.343-5.083-5.75
			c-0.758-0.675-1.514-1.969-2.333-2.583c-0.497-0.373-1.369-1.121-1.813-1.576c-6.215-6.371-16.312-11.71-23-17
			c-4.018-3.179-7.771-6.758-14-12c-5.521-5.341-7.854-8.091-12-13c-12.854-20.341-26.182-35.468-33-62
			c-2.488,0.154-3.096-1.571-5-2c-3.696,2.303-2.872,9.128-3,15c-11.224,57.392,1.343,132.735-4,196
			c-1.149,13.608-1.691,26.779-4,39c-72.334-0.665-147.332,1.331-218-1c0-49,0-98,0-147c10.392-2.274,25.313-0.675,36-2
			c10.063-1.092,20.171-1.802,28-4c8.229-1.425,12.236-1.977,14.396-2.675c8.454-2.229,16.917-5.313,26.604-8.325
			c2.076-0.591,2.563-0.925,5.063-1.675c2.56-0.903,4-1.417,5.938-2.325c46.241-21.6,78.427-58.378,107-100
			c2.208-13.208-4.789-17.212-4-29c-6.564-17.746-8.823-35.552-16-53c-0.789-1.917-2.975-2.061-4-4c-2.886-5.461-2.784-12.807-5-19
			c-1.012-2.826-4.74-7.511-7-14c-11.067-31.77-15.823-73.784-14-118c-0.354-1.313-1.76-1.573-2-3c-3,0-6,0-9,0
			c-37.347-2.319-28.511-50.822-44-75c-0.168-6.165-0.625-12.042-4-15c-0.051-8.334-0.295-20.505-4-22
			c-1.237-8.938,0.604-23.404-5-25c-0.269-18.814-15.36-25.486-11-51c3.965-0.632,2.865,3.802,7,3c-0.491,4.491,0.507,7.493,1,11
			c6.896-8.177-2.177-15.744-1-27c-4.146-1.146-3.896,2.104-7,2c-4.369-6.533-6.907-22.072-4-39c18.199,1.503,13.315,18.714,26,28
			c1.314-1.02,3.687-0.98,5-2c0.257-3.923-0.973-6.36-3-8c0.097-20.518-10.948-20.91-18-32c5.722-1.189,11.374-0.067,16,4
			c1.713-3.508,0.574-11.572-2-14c-0.791-26.664,3.776-47.952,8-70c7.09-37.011,15.399-71.128,28-104c1.992-3.675,4.784-6.549,4-13
			c1.48-0.52,2.521-1.479,4-2c10.748-36.585,32.227-62.441,61-81c4.734-9.933,16.225-13.109,21-23c11.38-4.996,15.199-11.425,25-18
			c6.44-8.586,20.251-18.794,37-26c12.56-5.403,24.7-13.982,36-19c4.682-2.079,9.648-1.646,14-3c14.422-4.487,27.594-13.091,44-10
			c-17.219,7.272-32.941,9.857-50,17c1.997,5.336,12.569,2.097,19,3c-8.582,6.665-22.378-2.23-30,0c-0.493,4.907,11.02,1.74,6,8
			c2.062,0.605,6.947-1.614,6,2c-3.236,0.431-8.649-1.315-9,2c1.335,5.331,11.387,1.946,16,4c-2.605,5.062-12.907,2.427-18,5
			c3.03,1.636,8.201,1.132,10,4c-1.376,2.958-7.24,1.426-10,3c-3.057,10.609-14.853,12.48-22,19c-4.205-1.246-5.598-4.369-11-2
			c0.087,3.246,5.963,0.704,5,5c-6.097,3.903-13.728,6.272-17,13c-6.724,1.935-24.209-3.563-29,3c1.659,4.007,10.973,0.36,14,3
			c-0.196,12.717-20.515,7.973-32,12c-0.55,4.55,6.705,1.295,7,5c0.044,3.92-2.111,3.098-3,4c0.7,4.301,9.016,0.984,10,5
			c-7.996,0.004-16.528-0.528-22,2c-1.292,3.958,3.292,2.042,2,6c-6.402,2.265-11.813,5.521-16,10c1.591,2.409,0.73,7.27,4,8
			c-3.316,2.017-9.714,0.953-12,4c-0.541,3.541,3.542,2.459,3,6c-5.872,3.128-11.267,6.733-11,16c-8.737,1.263-11.66,8.34-19,11
			c0.021,2.98,4.717,1.282,6,3c-18.476,15.434-36.014,31.632-43,56c5.186-1.814,7.026-6.974,14-7
			c-12.081,14.362-27.241,30.115-26,50c4.527,0.124,1.143-1.954,5-3c5.276,6.19-5.38,8.837-6,17c3.199,2.134,4.314,6.352,6,10
			c10.773-12.083,15.346-24.8,31-31c-1.511,9.534-3.902,12.053-9,18c-0.701,3.701,3.506,2.494,5,4c-4.48,6.854-10.442,12.224-12,22
			c6.425,1.758,4.754-4.58,11-3c-1.344,10.656-10.125,13.875-15,21c-1.602,3.936,4.319,0.348,4,3c-0.905,8.095-6.761,11.239-8,19
			c3.302,1.758,4.046-5.755,10-2c-1.195,6.138-6.484,8.183-7,15c-0.483,3.483,4.879,1.12,5,4c-1.034,14.3-5.349,25.318-9,37
			c0.518,65.019,6.954,118.004,15,175c-9.783,4.984-18.445-0.587-29-2c1.773,13.606,5.544,33.755,25,33
			c4.724-0.942,1.661-9.672,4-13c1.676,15.339,16.486,26.861,20,43c2.877,13.213,0.051,26.998,2,40c2.03,13.545,6.551,24.66,8,37
			c3.841,5.433,5.433,12.441,10,21.001c9.286,4.429,8.936-6.229,14-9.001c4.892,11.998,6,29.124,8,43
			c1.212,8.407,8.626,19.911,12,29c4.445,11.975,8.018,25.917,13,38c5.487,6.18,9.491,13.843,19,16c1.587-14.692-12.64-30.614-12-51
			c-0.529-1.539-1.043-0.063-1,1c-3.534-5.787,0.063-22.954-5-24c-1.634-8.253,0.728-22.795-5-24c-0.138-16.228-4.078-32.749-7-43
			c2.38-29.72,6.98-63.003-1-90c-2.023-2.977-4.245-5.755-5-10c-14.211-10.79-24.813-25.188-35-40c-2.079-8.256-9.57-11.096-9-22
			c11.899,6.47,20.628,24.68,30,37c9.021,2.979,18.753,5.246,26,10c0.178,4.379,2.08,8.14,4,8c3.658,30.715-1.523,75.201,1,104
			c0.318,3.635,3.031,8.157,3,8c1.902,9.724-0.246,20.782,2,29c0.529,1.539,1.043,0.063,1-1c4.768,21.565,5.07,47.597,22,57
			c0,13,0,26,0,39c2.319,1.492,2.245,4.691,4,7c3.437,4.521,10.204,8.009,15,13.001c16.61,17.285,28.562,42.096,49,52.999
			c6.402-1.069,8.21,2.457,12,4c49.654,5.718,107.146,15.634,158,8c4.082-1.917,7.638-4.363,14-4
			c36.478-14.557,65.948-39.061,92-60.999c-0.049-2.812,0.908-6.185,3-4.001c1.536-2.797-0.123-8.79,5-8
			c-0.729-4.729,0.586-7.414,4-8c-0.696-5.03,1.696-6.97,1-12c2.79,9.501,2.817-13.563,4-17c-0.388,1.125,3.669-9.835,4-10
			c4.23-2.115,9.35-16.015,12-23c0.111-3.533,1.834,0.104,3-3c1.957-16.709,9.467-27.866,13-43c5.084-1.472,5.322-6.729,11-9
			c0.719-0.287,4.465-3.463,7-5c2.331-1.413,6.337-4.688,9-7c2.278-1.978,3.487-4.944,6-7c2.292-1.875,4.025-3.327,7-6
			c3.946-16.054,10.996-29.004,13-47c7.722,23.458-4.289,52.084-22,60c-0.89,4.444-3.556,7.11-8,8c-7.76,14.977-15.697,35.846-24,54
			c0,3,0,6,0,9.001c-5.002,7.331-6.714,17.951-9,27.999c-1.086-0.247-0.679-1.988-2-2c-5.551,25.868-22.043,40.175-29,60
			c15.63-4.068,28.951-19.025,40-31c0.041-3.292,1.688-4.979,1-9c7.42-9.247,7.42-25.913,16-34c0-2,0-4,0-6
			c14.508-11.207,24.074-29.662,25-49c7.231,17.348-2.104,42.002-10,54c8.336,5.324,17.914-4.501,19-13
			c1.871,22.951-33.008,43.425-18,70c24.698,32.636,55.063,60.325,90,82C847.083,957.083,892.25,971,900,971.5 M382.938,36.925
			c-5.024,0.109-9.057-2.495-11,2C376.938,38.791,380.367,40.792,382.938,36.925z M193.938,382.925
			C190.9,386.293,197.635,385.957,193.938,382.925L193.938,382.925z M154.938,484.925c-2.276-0.485-5.109-1.984-7,0
			c1.406,11.927,11.655,15.011,13,27c1.177,0.157,2.838-0.172,3,1c4.346,27.077,0.43,70.778,36,66c-0.288-11.712-7.286-16.714-11-25
			c-0.953-10.286,1.604-17.063,3-25c-2.072,0.595-6.569-1.235-7,1c1.177,0.156,2.838-0.172,3,1c-2.333,0-4.667,0-7,0
			c0.545-2.924-6.955-5.436-4-14c3.164,0.164,3.342-2.657,7-2c-4.477-7.523-11.656-12.344-17-19c-5.762-1.052-1.368,3.382-5,3
			c-5.865-5.442,3.132-28.915-5-34C155.16,470.48,157.032,479.687,154.938,484.925z"/>
		<path fill-rule="evenodd" d="M816.938,302.925c3.64-0.973,0.463,4.871,5,3c5.954-16.039-15.221-28.76-7-46
			c-0.162-1.172-1.823-0.844-3-1c-0.599-11.735-11.275-13.391-12-25c3.769,0.769,4.78-1.22,8-1c-0.36-4.307-3.689-5.645-5-9
			c-0.468-3.134,2.515-2.819,4-4c-3.141-1.526-4.457-4.876-5-9c-3.14-0.493-2.643,3.447-5,1c0.895-1.772,4.06-1.274,3-5
			c-3.805-2.862-7.57-5.763-12-8c-2.519-11.481-5.969-22.032-13-29c1.334-1.666,5.666-0.334,7-2c-33.631-32.037-67.17-64.162-108-89
			c2.153-8.486-2.939-9.728-4-15c-0.997-2.252-5.452,2.162-7-1c-0.035-4.096,6.217-1.188,6-3c-2.204-4.615-5.151-5.932-11-9
			c0.543-5.993-0.182-9.786-4-9c23.504-0.501,39.922,14.744,56,25c0,1.333,0,2.667,0,4c12.334,7.999,24.324,16.343,32,29
			c0.89,0.777,2.258,1.075,4,1c4.947,11.72,14.39,18.943,22,28c25.329,15.338,48.442,32.892,63,59c-0.024,5.024,0.943,9.057,4,11
			c-0.074,5.741,0.736,10.598,4,13c-0.347,10.68,6.721,13.946,6,25c0.973-0.027,0.775-1.224,1-2c2.369,1.965,2.035,6.632,2,11
			c6.688,0.782,1.887,16.792,7,16c6.87,18.626,9.813,50.309,14,75c0.972-0.028,0.775-1.224,1-2c6.626,24.692,7.946,58.386,5,92
			c-4.413-5.93-0.967,9.311-5,10c-4.002,0.002-1.317-6.683-4-8c-2.4,2.933-2.016,8.65-2,14c-1.313,1.2-1.573,0.39-3,0
			c-0.229,15.743-4.077,29.186-7,45c-4.467,0.467-0.188-7.812-3-9c-3.83,1.503-3.752,6.914-10,6c-0.52,1.087-1.717,4.084-3,7
			c-5.29,2.172-6.143-2.22-13-1c-2.198-21.136,0.747-47.413-5-65c0.955-1.712,3.318-2.014,4-4c-1.24-9.093-4.928-15.739-5-26
			c2.337-0.329,4.131-1.202,6-2c-2.048-5.285,0.184-14.85-4-18c1,0,2,0,3,0c-2.128-16.206-14.859-21.807-15-40
			c1.289-1.377,4.344-0.99,7-1c0.01,2.656-0.378,5.711,1,7c5.022-6.174-4.122-14.194-1-25c3.146,1.145,2.431-1.57,4-2
			C820.257,309.605,817.827,307.036,816.938,302.925z M674.938,74.925c1.611,2.731,3.356-1.464,1.001-2
			C675.941,73.928,675.127,74.115,674.938,74.925z M821.938,324.925c0.729-2.335,2.734-8.535-2-8
			C819.868,320.327,819.626,323.903,821.938,324.925z M824.938,397.925C823.605,406.221,829.075,400.051,824.938,397.925
			L824.938,397.925z M854.938,443.925c-0.34-5.662,2.053-9.895-2-13C853.456,436.407,850.291,441.415,854.938,443.925z
			 M848.938,463.925c4.244-2.288,3.172-12.173,0-15C848.82,455.681,847.915,457.723,848.938,463.925z M829.938,488.925
			c-1.177,0.157-2.838-0.172-3,1C828.114,489.768,829.775,490.097,829.938,488.925z"/>
		<path fill-rule="evenodd" d="M410.938,45.925c6.344-2.222,12.795-1.678,20-1c-4.851,2.986,5.262,3.464,9,4
			c-1.306,4.306,2.068,3.932,4,5C437.215,50.973,415.32,54.548,410.938,45.925z"/>
		<path fill-rule="evenodd" d="M644.938,56.925c-0.973,0.028-0.775,1.224-1,2c-4.795-4.872-10.811-8.523-14.999-14
			c8.735-4.505,8.988,7.508,15.999,8c-1.902,5.568,3.798,3.535,4,7C647.224,61.731,645.006,59.618,644.938,56.925z"/>
		<path fill-rule="evenodd" d="M242.938,215.925c2.303,3.805-10.547,9.328-11,17c-3.13-0.464-4.464,0.87-4,4
			c-2.319,0.319-3.839-0.161-5-1c4.908-6.425,11.535-11.131,16-18C240.71,217.697,243.945,218.933,242.938,215.925z"/>
		<path fill-rule="evenodd" d="M321.938,371.925c1.053,3.719-3.372,1.961-4,4c0.316,5.908,8.202,1.625,12,2
			c1.587-4.92-5.167-1.5-4-6c13.919-5.475,29.737-13.05,49-10c7.832-4.44,20.954-6.863,30-7c4.517,3.483,9.226,6.774,16,8
			c1.895-6.228-6.875-1.792-6-7c6.629-4.699,9.527,7.275,15,1c5.221,5.113,8.767,11.9,11,20c7.988-1.582-0.152-15.359,4-22
			c4.389,1.944-0.021,12.688,4,15c1.991,0.209,4.271-4.239,5-2c2.138,5.529,0.027,15.306,3,20c5.578-4.422,7.048-12.952,8-22
			c6.93,11.128-6.319,25.709,4,33c3.132-0.535,3.603-3.73,4-7c4.611,2.613,1.395,6.967,2,13c-3.704-1.909-4.172,6.826-7,9
			c0.894,3.107,6.996,1.004,9,3c-1.036,2.631-1.196,6.137-1,10c8.967,8.454,10.382,33.7,6,49c-4.582-6.084-0.729-20.604-2-30
			c-2.995-1.151-3.361-3.597-6-7c-6.815,5.441,2.858,24.958-6,30c-0.58-4.753-1.445-9.221-1-15c-18.331-5.002-31.343-15.323-45-25
			c-3.856,1.477-6.202,4.464-10,6c0.12-6.73,8.703-7.235,3-14c-1.866-2.214-6.602-3.204-10-6c-1.505-1.239-1.036-3.523-2-4
			c-16.814-8.327-49.722-3.651-59,4c-13.861,2.646-25.718,5.083-33,16c1.918,1.849,20.359,3.355,23-3
			c14.598-0.069,23.225-6.109,40-4c3.174,2.493,6.521,4.813,13,4c17.621,13.046,43.491,17.842,57,35
			c-10.304-0.697-15.736-6.264-26-7c-2.547,1.453-2.685,5.316-5,7c-7.113-0.383-8.612-0.169-16,0c1.092-6.066,8.613-0.387,12-3
			c5.632-8.783-9.185-19.749-17-15c0.324,30.834-49.794,27.711-50,0c0.494-3.16-4.962-0.371-4-4c-5.332,2.883-9.891,1.217-12,8
			c3.15,6.516,10.483,8.851,16,13c-13.632,3.111-24.579-17.169-40-9c1.868,3.465,7.817,2.85,12,4c1.913,8.42,6.747,13.92,16,15
			c0,1.333,0,2.667,0,4c7.76,1.573,22.069-3.402,25,3c-11.017,1.229-26.284,3.955-31-3c-13.298,17.364-29.269-7.401-30-21
			c-5.667,0-11.333,0-17,0c-9.623-4.711-16.784-11.883-27-16c-2.215-7.561-15.325-9.195-12-19c6.159,5.43,21.42,19.081,33,24
			c8.406,3.571,19.827,4.939,23-3c-15.696,0.03-19.688-11.645-35-12c-0.777-2.223-2.101-3.899-2-7c3.59-6.11,19.226-7.321,12-18
			c3.664-2.489,12.673-8.651,7-14c-3.702-0.702-1.725,4.275-4,5c-5.792-3.835,3.734-8.658,3-14c4.798-0.653,8.463-1.504,13,0
			c-0.725,4.042-3.953,7.123-2,11c9.033-4.891,14.872-9.127,21-20c4.19-0.857,2.19,4.477,4,6
			C315.481,377.166,317.872,369.943,321.938,371.925z M404.938,361.925c0.947-3.614-3.938-1.395-6-2
			C397.99,363.539,402.876,361.32,404.938,361.925z M412.938,365.925c1.542-3.019-5.175-2.631-5-1
			C409.098,365.764,410.619,366.244,412.938,365.925z M426.938,369.925c0-1.333,0-2.667,0-4c-1.613-0.168-5.155-3.356-6-1
			C426.237,365.352,420.291,370.845,426.938,369.925z M332.938,369.925c1.839,10.696,20.391,1.479,24-2
			c-3.294-0.706-6.393-1.606-10-2C346.774,373.264,338.713,370.299,332.938,369.925z M429.938,374.925c1.574-1.485,1.114-4.468-2-4
			C427.658,373.205,428.179,374.684,429.938,374.925z M313.938,394.925c4.06,0.789,6.967-1.073,7,2c-5.446,2.887-14.919,1.748-16,9
			c0.684,1.983,5.958-0.624,5,3c-5.726,3.25-13.234,6.982-20,8c-0.105,2.561-0.566,4.767-2,6c-3.32,2.347-12.634-1.301-14,3
			c-0.761,3.761,5.31,0.69,4,5c21.582,0.248,30.773-11.894,48-16c3.95-7.64,20.495-7.958,28-15c-8.161-4.294-18.386,2.793-24,1
			c1.658-2.343,5.676-2.324,4-8c-7.843,0.509-11.274-3.392-20-2C313.938,392.258,313.938,393.592,313.938,394.925z M301.938,397.925
			c1.332,1.301,3.018,0.615,4-1C304.608,395.626,302.216,395.606,301.938,397.925z M354.938,397.925c2.333,0,4.667,0,7,0
			c0-0.667,0-1.333,0-2c-2.333,0-4.667,0-7,0C354.938,396.592,354.938,397.258,354.938,397.925z M280.938,401.925
			c2.358,1.468,1.86,2.11,5,1C287.569,396.583,280.695,397.082,280.938,401.925z M303.938,404.925c-1.758,0.575-5.875-1.209-6,1
			C299.696,405.35,303.813,407.133,303.938,404.925z M434.938,424.925c0.846,4.487,6.225,4.442,5,11c3.734,1.171,14.114,5.564,13-3
			C446.971,430.744,441.25,423.48,434.938,424.925z M360.938,452.925c-0.431-2.236-4.928-0.405-7-1
			C352.35,457.61,360.809,456.456,360.938,452.925z M377.938,451.925c-0.883-0.768-2.855,0.615-3,1
			C373.505,456.744,379.917,453.646,377.938,451.925z"/>
		<path fill-rule="evenodd" d="M570.938,371.925c1.65,8.662-10.575,12.083-11,22c14.385,0.895,18.279-16.939,33-19
			c-0.497,5.502-5.222,6.778-8,10c8.236,2.888,12.767-6.556,18-10c11.482,6.103,14.104-6.733,23-3c1.19,4.19-4.215,1.785-5,4
			c5.285,7.414,23.594-8.104,32,2c-6.112,0.555-12.573,0.76-18,2c8.665,8.334,23.822,10.178,39,12c0.044,3.92-2.111,3.098-3,4
			c5.146,6.875,24.77,6.972,31,16c1.087,4.087-1.068,4.931-3,6c0.437,1.484,1.28-0.395,3,0c7.068,19.598,22.407,30.926,45,35
			c-4.906,2.76-10.078,5.255-17,6c-17.954-10.38-25.839-30.828-49-36c-21.387-8.322-54.833-10.925-73,2c1.473,3.832,9.756,5.16,7,10
			c-6.77,1.77-5.119-4.88-11-4c-5.068,1.598-5.833,7.5-8,12c-11.052-1.052-19.457,0.543-22,8c-6.229-3.299-13.039,3.544-16,4
			c-6.774,1.043-11.909-2.7-18,0c-7.626,9.052,2.664,20.384-1,31c-3.07-2.596-1.439-9.894-6-11
			C522.201,430.334,544.651,393.842,570.938,371.925z M557.938,396.925C559.096,400.876,559.097,392.974,557.938,396.925
			L557.938,396.925z"/>
		<path fill-rule="evenodd" d="M673.938,385.925c-2.667,0-5.333,0-8,0c-0.302-3.635,5.331-1.335,7-3c0.859,0.807,0.594,2.739,2,3
			c2.71-1.624,5.818-2.849,8-5c15.304,4.419,22.735,15.486,22,30c-9.854-5.904-12.802-20.044-25-24c-2.761-0.428-0.938,3.728-3,4
			C673.813,391.382,673.74,388.789,673.938,385.925z"/>
		<path fill-rule="evenodd" d="M601.938,472.925c0.995,2.24,5.257,3.903,12,3c2.165,7.019,21.833,2.895,33,4
			c7.173,10.119,17.748-3.7,28,1c-3.542,3.869-4.913,5.031-5,11c-6.435-1.773-5.511-0.722-8-4c-5.533-0.8-15.013,2.347-15-4
			c-2.333,0-4.667,0-7,0c-9.436,9.797-25.25-1.613-37-5C603.659,475.869,601.915,475.281,601.938,472.925z"/>
		<path fill-rule="evenodd" d="M818.938,590.925c-2.355-0.022-2.943,1.723-6,1c-4.209-7.731,4.563-18.71,9-21
			c1.781-0.919,5.449-0.647,1,1C823.936,580.589,817.486,581.808,818.938,590.925z"/>
		<path fill-rule="evenodd" d="M830.938,652.925c0.678,12.344-10.253,13.08-19,16c-3.875-1.428-8.142-6.773-14-3
			c-10.861,24.805-10.232,61.101-19,88.001c0.805,16.493-7.53,26.225-9,42.999c-3.863,0.007-1.922-9.349-1-11
			c5.631-14.423,4.198-28.068,10-41c5.324-21.297,1.109-58.616,5-81c1.031-5.936,5.296-10.018,8-14c10.728-3.875,20.379-2.105,28,4
			C824.429,654.416,827.431,653.418,830.938,652.925z"/>
		<path fill-rule="evenodd" d="M519.938,8.925c-12.971,5.227-30.896,2.974-43,7c-3.484,0.294,0.084,2.706-2,3
			c-14.992,1.722-28.409,1.275-42,0C448.751,1.748,494.689,8.053,519.938,8.925z"/>
		<path fill-rule="evenodd" d="M519.938,26.925c-11.535-1.202-18.371,2.295-27,4c-1.244-3.155-15.898-4.647-21-1
			c3.563,4.438,17.84-1.84,17,7c2.179-0.939,8.975,0.612,14,0c-11.844,5.267-40.045-0.863-47,6c-5.703-0.024-6.044,0.771-11,0
			c5.188-5.145,12.641-8.025,23-8c-2.461-5.539-14.022-1.978-21-3c-0.58-3.247,0.681-4.652,1-7
			C469.873,24.152,501.082,21.421,519.938,26.925z"/>
		<path fill-rule="evenodd" d="M885.938,429.925c4.072,6.133,3.361,28.113-5,25c2.759,7.53,2.655,16.716,2,29
			c-5.194-3.473-2.197-15.136-3-23c-5.306,5.426-0.83-5.869-6-6c-8.493,4.258-5.304,20.603-7,29c-6.706-6.294-0.405-25.595-4-35
			c5.073-0.926,10.815-1.185,10-8C875.878,445.678,877.754,422.959,885.938,429.925z"/>
	</g>
</g>
</svg>
